Coordinates
version=1
nRows=4
nColumns=107
inDegrees=yes

Units are S.I. units (second, meters, Newtons, ...)
If the header above contains a line with 'inDegrees', this indicates whether rotational values are in degrees (yes) or radians (no).

endheader
time	sternoclavicular_r2	sternoclavicular_r3	unrotscap_r3	unrotscap_r2	acromioclavicular_r2	acromioclavicular_r3	acromioclavicular_r1	unrothum_r1	unrothum_r3	unrothum_r2	elv_angle	shoulder_elv	shoulder1_r2	shoulder_rot	elbow_flexion	pro_sup	deviation	flexion	proximal_distal_r1	proximal_distal_r3	cmc_flexion	cmc_abduction	mp_flexion	ip_flexion	mcp2_flexion	mcp2_abduction	pm2_flexion	md2_flexion	mcp3_flexion	mcp3_abduction	pm3_flexion	md3_flexion	mcp4_flexion	mcp4_abduction	pm4_flexion	md4_flexion	mcp5_flexion	mcp5_abduction	pm5_flexion	md5_flexion	bicpt_tx	bicpt_ty	bicpt_tz	bicpt2_tx	bicpt2_ty	bicpt2_tz	ptpt_tx	ptpt_ty	ptpt_tz	FCUpt_tx	FCUpt_ty	FCUpt_tz	EDCpt_tx	EDCpt_ty	EDCpt_tz	APLpt_tx	APLpt_ty	APLpt_tz	FPLpt_tx	FPLpt_ty	FPLpt_tz	FPLpt2_tx	FPLpt2_ty	FPLpt2_tz	PEC1pt2_tx	PEC1pt2_ty	PEC1pt2_tz	PEC1pt3_tx	PEC1pt3_ty	PEC1pt3_tz	PEC2pt2_tx	PEC2pt2_ty	PEC2pt2_tz	PEC2pt3_tx	PEC2pt3_ty	PEC2pt3_tz	PEC3pt2_tx	PEC3pt2_ty	PEC3pt2_tz	PEC3pt3_tx	PEC3pt3_ty	PEC3pt3_tz	DELT2pt2a_tx	DELT2pt2a_ty	DELT2pt2a_tz	DELT2pt2_tx	DELT2pt2_ty	DELT2pt2_tz	LAT1pt2_tx	LAT1pt2_ty	LAT1pt2_tz	LAT1pt3_tx	LAT1pt3_ty	LAT1pt3_tz	LAT2pt2_tx	LAT2pt2_ty	LAT2pt2_tz	LAT2pt3_tx	LAT2pt3_ty	LAT2pt3_tz	LAT3pt2_tx	LAT3pt2_ty	LAT3pt2_tz	LAT3pt3_tx	LAT3pt3_ty	LAT3pt3_tz
      1.13333333	     -0.32441168	      0.13740548	     -0.13740548	      0.32441168	     -0.06568677	      0.53085734	      0.23861672	     -0.23861672	     -0.53085734	      0.06568677	     97.70877237	     76.80734907	     -1.70533979	    -19.09210638	     30.37612859	     26.01678795	      0.00461026	     -1.05998152	      0.00623938	     -0.52999076	     19.60609290	    -16.15071006	    -16.17427781	     -4.72671833	     13.13171084	     11.88239478	     41.48457586	      9.84514372	     22.39873236	      4.35240144	     24.14700621	     22.24475598	     31.20118669	     -0.71818545	     13.18846605	     27.07259595	     44.21784418	    -13.19944999	      7.97027312	      5.16980730	      0.00090475	     -0.03108157	     -0.00486079	      0.01632463	     -0.01845182	     -0.00882569	      0.00562765	     -0.06614302	     -0.00214579	      0.00640260	     -0.18375819	     -0.00021353	     -0.00312201	      0.00084160	      0.00019382	      0.00014358	      0.00005743	      0.00028716	      0.00018378	      0.00055135	      0.00031014	      0.00001279	     -0.00027660	     -0.00033192	      0.00251758	      0.00883285	      0.00614459	     -0.00823546	      0.01988459	     -0.01886049	      0.00251758	      0.00883285	      0.00614459	      0.00055472	      0.01843378	     -0.00968627	      0.00397211	      0.00491184	      0.01602641	      0.00000000	      0.00789053	      0.00000000	     -0.00721136	     -0.03332588	     -0.00650672	      0.01324684	     -0.00040422	     -0.00298957	     -0.00089609	      0.01502012	     -0.00614459	      0.00247491	      0.02167676	     -0.01792173	     -0.00601658	      0.01301459	     -0.00550453	     -0.01254521	      0.02747999	     -0.03076564	     -0.02355427	      0.01455074	     -0.00738205	     -0.01561751	      0.03174706	     -0.03844638
      1.16666667	     -0.32337564	      0.13696666	     -0.13696666	      0.32337564	     -0.06547699	      0.52916200	      0.23785468	     -0.23785468	     -0.52916200	      0.06547699	     97.92996974	     76.56205803	     -1.70920041	    -20.07209623	     30.33175199	     23.54006347	     -0.02867086	     -1.07011861	     -0.03958320	     -0.53505931	     22.05831571	    -17.86024009	    -17.05375154	     -1.51630621	      9.57230385	     11.36655147	     39.43350892	      8.95962142	     18.55436614	      3.97286920	     24.66427965	     20.94499689	     27.74291650	     -0.17705636	     13.80293296	     24.68866789	     41.79553787	    -13.12559270	      6.71319340	      5.20662483	      0.00090328	     -0.03107648	     -0.00485997	      0.01623375	     -0.01843977	     -0.00903722	      0.00581065	     -0.06602469	     -0.00194628	      0.00616488	     -0.18379900	     -0.00016756	     -0.00282480	      0.00075248	      0.00019117	      0.00013587	      0.00005435	      0.00027174	      0.00017392	      0.00052175	      0.00029348	      0.00000684	     -0.00028114	     -0.00033737	      0.00250954	      0.00880464	      0.00612497	     -0.00820916	      0.01982108	     -0.01880025	      0.00250954	      0.00880464	      0.00612497	      0.00055295	      0.01837491	     -0.00965533	      0.00396287	      0.00489615	      0.01600402	      0.00000000	      0.00783986	      0.00000000	     -0.00718833	     -0.03321945	     -0.00646466	      0.01381782	     -0.00043415	     -0.00332325	     -0.00089322	      0.01497215	     -0.00612497	      0.00246700	      0.02160753	     -0.01786450	     -0.00599737	      0.01297303	     -0.00548695	     -0.01250515	      0.02739223	     -0.03066738	     -0.02347905	      0.01450427	     -0.00735847	     -0.01556763	      0.03164568	     -0.03832360
      1.20000000	     -0.32545926	      0.13784918	     -0.13784918	      0.32545926	     -0.06589888	      0.53257157	      0.23938726	     -0.23938726	     -0.53257157	      0.06589888	     97.53098953	     77.05537373	     -1.70223689	    -17.65533209	     30.21302402	     17.73829698	     -0.04518723	     -1.07190479	     -0.06299669	     -0.53595239	     24.33879423	    -19.57924249	    -15.45447328	     -1.41099290	      4.49586521	     11.12106034	     38.36474666	      8.48958456	     14.85452171	      3.37063151	     22.80596844	     20.48707782	     24.48611236	      0.41711118	     12.14415771	     24.10169206	     38.27417609	    -13.08523141	      6.77220553	      5.18645156	      0.00089935	     -0.03106287	     -0.00485778	      0.01596593	     -0.01840752	     -0.00949907	      0.00623934	     -0.06574749	     -0.00147892	      0.00561544	     -0.18388780	     -0.00004178	     -0.00212859	      0.00055114	      0.00017194	      0.00013449	      0.00005380	      0.00026899	      0.00017215	      0.00051646	      0.00029051	      0.00000166	     -0.00027937	     -0.00033525	      0.00252571	      0.00886138	      0.00616444	     -0.00826206	      0.01994880	     -0.01892139	      0.00252571	      0.00886138	      0.00616444	      0.00055651	      0.01849331	     -0.00971755	      0.00398143	      0.00492770	      0.01604892	      0.00000000	      0.00794195	      0.00000000	     -0.00723465	     -0.03343350	     -0.00654939	      0.01238653	     -0.00036104	     -0.00252842	     -0.00089898	      0.01506862	     -0.00616444	      0.00248290	      0.02174676	     -0.01797960	     -0.00603601	      0.01305662	     -0.00552231	     -0.01258572	      0.02756872	     -0.03086498	     -0.02363033	      0.01459772	     -0.00740588	     -0.01566794	      0.03184958	     -0.03857053
      1.23333333	     -0.32319101	      0.13688846	     -0.13688846	      0.32319101	     -0.06543961	      0.52885987	      0.23771887	     -0.23771887	     -0.52885987	      0.06543961	     98.00541348	     76.51834459	     -1.71051715	    -20.00548446	     30.19615096	     16.32710988	     -0.07746391	     -1.05930247	     -0.11004089	     -0.52965124	     26.99134244	    -20.73321991	    -14.51114086	     -0.07866081	     -0.12630121	     10.90496276	     35.92538435	      7.31168285	     10.92886988	      2.91072245	     20.89670927	     19.52833498	     21.01264410	      1.04289122	     10.60990260	     23.30420478	     35.13127366	    -13.06365506	      5.16227180	      5.19950975	      0.00089879	     -0.03106094	     -0.00485747	      0.01588915	     -0.01840293	     -0.00960428	      0.00634361	     -0.06568007	     -0.00136524	      0.00548336	     -0.18390795	     -0.00000736	     -0.00195925	      0.00050374	      0.00016451	      0.00014409	      0.00005764	      0.00028819	      0.00018444	      0.00055332	      0.00031124	     -0.00000369	     -0.00027005	     -0.00032406	      0.00250810	      0.00879962	      0.00612147	     -0.00820447	      0.01980977	     -0.01878952	      0.00250810	      0.00879962	      0.00612147	      0.00055263	      0.01836442	     -0.00964982	      0.00396122	      0.00489336	      0.01600001	      0.00000000	      0.00783084	      0.00000000	     -0.00718423	     -0.03320049	     -0.00645718	      0.01377946	     -0.00043210	     -0.00330004	     -0.00089271	      0.01496360	     -0.00612147	      0.00246559	      0.02159520	     -0.01785430	     -0.00599394	      0.01296562	     -0.00548382	     -0.01249801	      0.02737659	     -0.03064987	     -0.02346565	      0.01449599	     -0.00735427	     -0.01555874	      0.03162761	     -0.03830171
